<svg width="24" height="24" viewBox="0 0 24 24" fill="none" xmlns="http://www.w3.org/2000/svg">
<path d="M13.6105 20V19.3582C13.6105 18.9874 13.7158 18.6475 13.9262 18.3385C14.1369 18.0295 14.408 17.7972 14.7396 17.6417C15.1501 17.4584 15.5646 17.3195 15.983 17.225C16.4014 17.1305 16.8501 17.0832 17.3289 17.0832C17.7868 17.0832 18.2289 17.1305 18.6553 17.225C19.0816 17.3195 19.4868 17.4584 19.871 17.6417C20.2026 17.7972 20.4737 18.0278 20.6843 18.3333C20.8948 18.6389 21 18.9751 21 19.3417V19.9832L13.6105 20ZM17.3046 15.8332C16.805 15.8332 16.3776 15.6455 16.0223 15.27C15.667 14.8945 15.4894 14.4432 15.4894 13.916C15.4894 13.3887 15.6673 12.9375 16.023 12.5625C16.3787 12.1875 16.8064 12 17.306 12C17.8056 12 18.233 12.1877 18.5882 12.5633C18.9435 12.9388 19.1211 13.3902 19.1211 13.9175C19.1211 14.4447 18.9433 14.8958 18.5875 15.2708C18.2318 15.6458 17.8041 15.8332 17.3046 15.8332ZM4.57903 21C4.15271 21 3.78292 20.8347 3.46966 20.5042C3.15655 20.1736 3 19.7833 3 19.3333V4.66675C3 4.21675 3.15655 3.82642 3.46966 3.49575C3.78292 3.16525 4.15271 3 4.57903 3H18.4736C18.8999 3 19.2697 3.16525 19.583 3.49575C19.8961 3.82642 20.0526 4.21675 20.0526 4.66675V10.6667C19.8052 10.5501 19.5495 10.4481 19.2855 10.3607C19.0215 10.2734 18.7509 10.2059 18.4736 10.1583V4.66675H4.57903V14.4H8.58947C8.8369 14.8722 9.14424 15.2796 9.5115 15.6223C9.87892 15.9649 10.29 16.2048 10.7447 16.3418C10.7079 16.6306 10.6922 16.9152 10.6974 17.1957C10.7026 17.4764 10.7237 17.7556 10.7606 18.0332C10.1816 17.9277 9.63553 17.7069 9.12237 17.3707C8.60921 17.0347 8.17895 16.6001 7.83158 16.0668H4.57903V19.3333H11.0604C11.1593 19.6369 11.2722 19.9268 11.3991 20.2028C11.5261 20.4788 11.6764 20.7445 11.8501 21H4.57903ZM6.74211 8.58325H16.3105V6.91675H6.74211V8.58325ZM6.74211 12.15H12.6236C12.9763 11.7667 13.3592 11.4389 13.7723 11.1667C14.1855 10.8944 14.6316 10.6666 15.1104 10.4833H6.74211V12.15Z" fill="#1D274E"/>
</svg>
