<svg width="24" height="24" viewBox="0 0 24 24" fill="none" xmlns="http://www.w3.org/2000/svg">
<rect width="24" height="24" rx="12" fill="#0EBD84"/>
<path d="M16.2437 15.1938C16.4479 14.9896 16.55 14.7417 16.55 14.45C16.55 14.1583 16.4479 13.9104 16.2437 13.7063C16.0396 13.5021 15.7917 13.4 15.5 13.4C15.2083 13.4 14.9604 13.5021 14.7563 13.7063C14.5521 13.9104 14.45 14.1583 14.45 14.45C14.45 14.7417 14.5521 14.9896 14.7563 15.1938C14.9604 15.3979 15.2083 15.5 15.5 15.5C15.7917 15.5 16.0396 15.3979 16.2437 15.1938ZM16.4975 17.355C16.7892 17.1917 17.0342 16.9642 17.2325 16.6725C16.9992 16.4858 16.7338 16.3488 16.4362 16.2613C16.1388 16.1737 15.8267 16.13 15.5 16.13C15.1733 16.13 14.8612 16.1737 14.5638 16.2613C14.2662 16.3488 14.0008 16.4858 13.7675 16.6725C13.9658 16.9642 14.2108 17.1917 14.5025 17.355C14.7942 17.5183 15.1267 17.6 15.5 17.6C15.8733 17.6 16.2058 17.5183 16.4975 17.355ZM6.4 17.6C6.015 17.6 5.68542 17.4629 5.41125 17.1888C5.13708 16.9146 5 16.585 5 16.2V6.4C5 6.015 5.13708 5.68542 5.41125 5.41125C5.68542 5.13708 6.015 5 6.4 5H16.2C16.585 5 16.9146 5.13708 17.1888 5.41125C17.4629 5.68542 17.6 6.015 17.6 6.4V11.09C17.3783 10.985 17.1508 10.8946 16.9175 10.8187C16.6842 10.7429 16.445 10.6875 16.2 10.6525V6.4H6.4V16.2H10.635C10.67 16.4567 10.7254 16.7017 10.8012 16.935C10.8771 17.1683 10.9675 17.39 11.0725 17.6H6.4ZM6.4 15.5V16.2V6.4V10.6525V10.6V15.5ZM7.8 14.8H10.6525C10.6875 14.555 10.7429 14.3158 10.8187 14.0825C10.8946 13.8492 10.9792 13.6217 11.0725 13.4H7.8V14.8ZM7.8 12H12.07C12.4433 11.65 12.8604 11.3583 13.3212 11.125C13.7821 10.8917 14.275 10.7342 14.8 10.6525V10.6H7.8V12ZM7.8 9.2H14.8V7.8H7.8V9.2ZM15.5 19C14.5317 19 13.7063 18.6588 13.0238 17.9762C12.3412 17.2937 12 16.4683 12 15.5C12 14.5317 12.3412 13.7063 13.0238 13.0238C13.7063 12.3412 14.5317 12 15.5 12C16.4683 12 17.2937 12.3412 17.9762 13.0238C18.6588 13.7063 19 14.5317 19 15.5C19 16.4683 18.6588 17.2937 17.9762 17.9762C17.2937 18.6588 16.4683 19 15.5 19Z" fill="white"/>
</svg>
