<svg width="24" height="24" viewBox="0 0 24 24" fill="none" xmlns="http://www.w3.org/2000/svg">
<rect width="24" height="24" rx="12" fill="#1E61C1"/>
<path d="M13.3125 13.4875C12.9042 13.0792 12.7 12.5833 12.7 12C12.7 11.4167 12.9042 10.9208 13.3125 10.5125C13.7208 10.1042 14.2167 9.9 14.8 9.9C15.3833 9.9 15.8792 10.1042 16.2875 10.5125C16.6958 10.9208 16.9 11.4167 16.9 12C16.9 12.5833 16.6958 13.0792 16.2875 13.4875C15.8792 13.8958 15.3833 14.1 14.8 14.1C14.2167 14.1 13.7208 13.8958 13.3125 13.4875ZM15.2987 12.4988C15.4329 12.3646 15.5 12.1983 15.5 12C15.5 11.8017 15.4329 11.6354 15.2987 11.5013C15.1646 11.3671 14.9983 11.3 14.8 11.3C14.6017 11.3 14.4354 11.3671 14.3013 11.5013C14.1671 11.6354 14.1 11.8017 14.1 12C14.1 12.1983 14.1671 12.3646 14.3013 12.4988C14.4354 12.6329 14.6017 12.7 14.8 12.7C14.9983 12.7 15.1646 12.6329 15.2987 12.4988ZM10.6 19V16.97C10.6 16.725 10.6583 16.4946 10.775 16.2788C10.8917 16.0629 11.055 15.8908 11.265 15.7625C11.6383 15.5408 12.0321 15.3571 12.4462 15.2113C12.8604 15.0654 13.2833 14.9575 13.715 14.8875L14.8 16.2L15.885 14.8875C16.3167 14.9575 16.7367 15.0654 17.145 15.2113C17.5533 15.3571 17.9442 15.5408 18.3175 15.7625C18.5275 15.8908 18.6938 16.0629 18.8163 16.2788C18.9388 16.4946 19 16.725 19 16.97V19H10.6ZM11.9825 17.6H14.135L13.19 16.445C12.98 16.5033 12.7758 16.5792 12.5775 16.6725C12.3792 16.7658 12.1808 16.865 11.9825 16.97V17.6ZM15.465 17.6H17.6V16.97C17.4133 16.8533 17.2208 16.7513 17.0225 16.6637C16.8242 16.5763 16.62 16.5033 16.41 16.445L15.465 17.6ZM6.4 17.6C6.015 17.6 5.68542 17.4629 5.41125 17.1888C5.13708 16.9146 5 16.585 5 16.2V6.4C5 6.015 5.13708 5.68542 5.41125 5.41125C5.68542 5.13708 6.015 5 6.4 5H16.2C16.585 5 16.9146 5.13708 17.1888 5.41125C17.4629 5.68542 17.6 6.015 17.6 6.4V9.9C17.4133 9.66667 17.2092 9.445 16.9875 9.235C16.7658 9.025 16.5033 8.885 16.2 8.815V6.4H6.4V16.2H9.305C9.27 16.3283 9.24375 16.4567 9.22625 16.585C9.20875 16.7133 9.2 16.8417 9.2 16.97V17.6H6.4ZM7.8 9.2H12.7C13.0033 8.96667 13.3358 8.79167 13.6975 8.675C14.0592 8.55833 14.4267 8.5 14.8 8.5V7.8H7.8V9.2ZM7.8 12H11.3C11.3 11.755 11.3263 11.5158 11.3787 11.2825C11.4313 11.0492 11.5042 10.8217 11.5975 10.6H7.8V12ZM7.8 14.8H10.215C10.3433 14.695 10.4804 14.6017 10.6263 14.52C10.7721 14.4383 10.9208 14.3625 11.0725 14.2925V13.4H7.8V14.8ZM6.4 16.2V6.4V8.7975V8.5V16.2Z" fill="white"/>
</svg>
