<svg width="24" height="24" viewBox="0 0 24 24" fill="none" xmlns="http://www.w3.org/2000/svg">
<path d="M4.41674 19C4.03424 19 3.70245 18.8529 3.42139 18.5588C3.14046 18.2648 3 17.9257 3 17.5416V6.45841C3 6.07428 3.14046 5.73522 3.42139 5.44122C3.70245 5.14707 4.03424 5 4.41674 5H10.0975L11.5142 6.45841H18.5833C18.9564 6.45841 19.2858 6.60541 19.5714 6.89941C19.8571 7.19355 20 7.53261 20 7.91659V17.5416C20 17.9257 19.8571 18.2648 19.5714 18.5588C19.2858 18.8529 18.9564 19 18.5833 19H4.41674ZM4.41674 17.5416H18.5833V7.91659H10.9262L9.50951 6.45841H4.41674V17.5416Z" fill="#1D274E"/>
</svg>
