<svg width="24" height="24" viewBox="0 0 24 24" fill="none" xmlns="http://www.w3.org/2000/svg">
<path d="M11.1668 18.2849H12.8333V17.3849H14.1667C14.4028 17.3849 14.6007 17.3131 14.7605 17.1694C14.9202 17.0257 15 16.8476 15 16.635V13.7849C15 13.5725 14.9202 13.3944 14.7605 13.2506C14.6007 13.1068 14.4028 13.035 14.1667 13.035H10.6668V11.685H15V10.1849H12.8333V9.28493H11.1668V10.1849H9.83325C9.59725 10.1849 9.39933 10.2568 9.2395 10.4007C9.07983 10.5444 9 10.7225 9 10.9351V13.7849C9 13.9975 9.07983 14.1756 9.2395 14.3193C9.39933 14.4632 9.59725 14.5351 9.83325 14.5351H13.3333V15.8851H9V17.3849H11.1668V18.2849ZM5.66675 21C5.21675 21 4.82642 20.8513 4.49575 20.5538C4.16525 20.2562 4 19.9049 4 19.4999V4.50007C4 4.09507 4.16525 3.74378 4.49575 3.44618C4.82642 3.14873 5.21675 3 5.66675 3H14.35L20 8.085V19.4999C20 19.9049 19.8348 20.2562 19.5042 20.5538C19.1736 20.8513 18.7833 21 18.3333 21H5.66675ZM13.1833 8.085V4.50007H5.66675V19.4999H18.3333V8.085H13.1833Z" fill="white"/>
</svg>
