<svg width="24" height="24" viewBox="0 0 24 24" fill="none" xmlns="http://www.w3.org/2000/svg">
<path d="M4.66675 7.43325V19.3333H19.3333V7.43325H16V15.8L12 13.8L8 15.8V7.43325H4.66675ZM4.66675 21C4.20842 21 3.816 20.8368 3.4895 20.5105C3.16317 20.184 3 19.7916 3 19.3333V6.35825C3 6.17075 3.02917 5.98992 3.0875 5.81575C3.14583 5.64158 3.23333 5.48075 3.35 5.33325L4.63325 3.64175C4.78325 3.44175 4.976 3.28475 5.2115 3.17075C5.447 3.05692 5.69317 3 5.95 3H18.0333C18.2903 3 18.5364 3.05692 18.7718 3.17075C19.0072 3.28475 19.2 3.44175 19.35 3.64175L20.65 5.33325C20.7667 5.48075 20.8542 5.64158 20.9125 5.81575C20.9708 5.98992 21 6.17075 21 6.35825V19.3333C21 19.7916 20.8368 20.184 20.5105 20.5105C20.184 20.8368 19.7916 21 19.3333 21H4.66675ZM5.08325 5.76675H18.9L18.0098 4.66675H5.96675L5.08325 5.76675ZM9.66675 7.43325V13.1L12 11.9332L14.3333 13.1V7.43325H9.66675Z" fill="#1D274E"/>
</svg>
